<svg data-v-423bf9ae="" xmlns="http://www.w3.org/2000/svg" viewBox="0 0 266.85795247363546 180" class="iconAbove"><!----><!----><!----><g data-v-423bf9ae="" id="82c4bba3-e944-4c0a-ba40-b42076f0355f" fill="#08374E" transform="matrix(8.608321047536627,0,0,8.608321047536627,-2.668583001373406,93.22104844141205)"><path d="M2.16 7.82L2.16 7.82L1.86 7.82L1.86 3.92L2.21 3.92L2.21 3.92Q2.53 3.92 2.71 4.33L2.71 4.33L2.71 4.33Q2.89 4.73 2.89 5.46L2.89 5.46L2.89 5.94L2.89 5.94Q2.89 6.94 2.70 7.38L2.70 7.38L2.70 7.38Q2.51 7.82 2.16 7.82ZM2.30 8.62L2.30 8.62L2.30 8.62Q2.81 8.62 3.22 8.44L3.22 8.44L3.22 8.44Q3.62 8.26 3.86 7.98L3.86 7.98L3.86 7.98Q4.10 7.70 4.26 7.30L4.26 7.30L4.26 7.30Q4.42 6.91 4.48 6.51L4.48 6.51L4.48 6.51Q4.54 6.12 4.54 5.69L4.54 5.69L4.54 5.69Q4.54 4.41 4.02 3.74L4.02 3.74L4.02 3.74Q3.50 3.08 2.31 3.08L2.31 3.08L2.31 3.08Q2.10 3.08 1.74 3.09L1.74 3.09L1.74 3.09Q1.37 3.11 1.05 3.12L1.05 3.12L0.31 3.12L0.31 8.59L1.05 8.59L1.05 8.59Q1.43 8.59 1.78 8.60L1.78 8.60L1.78 8.60Q2.13 8.62 2.30 8.62ZM7.12 6.17L7.12 6.17L6.41 6.17L6.41 5.78L6.41 5.78Q6.41 5.61 6.42 5.50L6.42 5.50L6.42 5.50Q6.44 5.39 6.48 5.29L6.48 5.29L6.48 5.29Q6.52 5.18 6.61 5.14L6.61 5.14L6.61 5.14Q6.70 5.09 6.84 5.09L6.84 5.09L6.84 5.09Q7 5.09 7.06 5.33L7.06 5.33L7.06 5.33Q7.12 5.58 7.12 6.17ZM6.75 8.68L6.75 8.68L6.75 8.68Q7.03 8.68 7.34 8.62L7.34 8.62L7.34 8.62Q7.64 8.55 7.98 8.37L7.98 8.37L7.98 8.37Q8.31 8.18 8.48 7.90L8.48 7.90L8.21 7.42L8.21 7.42Q8.08 7.55 7.88 7.63L7.88 7.63L7.88 7.63Q7.69 7.72 7.50 7.77L7.50 7.77L7.50 7.77Q7.31 7.81 7.15 7.81L7.15 7.81L7.15 7.81Q6.98 7.81 6.86 7.78L6.86 7.78L6.86 7.78Q6.75 7.75 6.64 7.67L6.64 7.67L6.64 7.67Q6.52 7.58 6.47 7.41L6.47 7.41L6.47 7.41Q6.41 7.23 6.41 6.95L6.41 6.95L6.41 6.86L8.54 6.86L8.54 6.35L8.54 6.35Q8.54 5.39 8.14 4.96L8.14 4.96L8.14 4.96Q7.75 4.53 6.83 4.53L6.83 4.53L6.83 4.53Q5.87 4.53 5.34 5.06L5.34 5.06L5.34 5.06Q4.81 5.60 4.81 6.65L4.81 6.65L4.81 6.65Q4.81 7.08 4.91 7.44L4.91 7.44L4.91 7.44Q5.01 7.80 5.23 8.08L5.23 8.08L5.23 8.08Q5.46 8.37 5.84 8.53L5.84 8.53L5.84 8.53Q6.23 8.68 6.75 8.68ZM8.57 4.62L9.94 8.59L11.41 8.59L12.60 4.62L11.34 4.62L11.00 6.05L10.76 7.29L10.55 6.05L10.25 4.62L8.57 4.62ZM16.23 8.25L16.27 8.20L16.06 7.46L16.06 7.46Q15.89 7.58 15.63 7.64L15.63 7.64L15.63 7.64Q15.37 7.70 15.13 7.70L15.13 7.70L15.13 7.70Q15.03 7.70 14.93 7.67L14.93 7.67L14.93 7.67Q14.84 7.64 14.72 7.53L14.72 7.53L14.72 7.53Q14.61 7.42 14.52 7.23L14.52 7.23L14.52 7.23Q14.44 7.05 14.38 6.70L14.38 6.70L14.38 6.70Q14.32 6.36 14.32 5.89L14.32 5.89L14.32 5.89Q14.32 5.12 14.41 4.71L14.41 4.71L14.41 4.71Q14.50 4.29 14.67 4.15L14.67 4.15L14.67 4.15Q14.84 4.01 15.15 4.01L15.15 4.01L15.15 4.01Q15.20 4.01 15.29 4.03L15.29 4.03L15.53 4.59L16.24 4.59L16.31 3.51L16.31 3.51Q16.30 3.50 16.27 3.46L16.27 3.46L16.27 3.46Q16.24 3.43 16.12 3.35L16.12 3.35L16.12 3.35Q16.00 3.26 15.85 3.20L15.85 3.20L15.85 3.20Q15.70 3.13 15.45 3.08L15.45 3.08L15.45 3.08Q15.19 3.03 14.91 3.03L14.91 3.03L14.91 3.03Q14.28 3.03 13.84 3.22L13.84 3.22L13.84 3.22Q13.40 3.41 13.15 3.79L13.15 3.79L13.15 3.79Q12.90 4.17 12.79 4.67L12.79 4.67L12.79 4.67Q12.68 5.18 12.68 5.87L12.68 5.87L12.68 5.87Q12.68 6.51 12.79 7.01L12.79 7.01L12.79 7.01Q12.90 7.50 13.14 7.89L13.14 7.89L13.14 7.89Q13.39 8.28 13.82 8.48L13.82 8.48L13.82 8.48Q14.26 8.68 14.87 8.68L14.87 8.68L14.87 8.68Q15.16 8.68 15.41 8.64L15.41 8.64L15.41 8.64Q15.66 8.59 15.81 8.51L15.81 8.51L15.81 8.51Q15.96 8.44 16.07 8.37L16.07 8.37L16.07 8.37Q16.18 8.30 16.23 8.25L16.23 8.25ZM18.71 8.22L18.76 8.17L18.91 8.59L20.19 8.59L20.06 8.22L20.06 6.32L20.06 6.32Q20.06 5.81 19.98 5.48L19.98 5.48L19.98 5.48Q19.90 5.14 19.71 4.93L19.71 4.93L19.71 4.93Q19.52 4.71 19.22 4.62L19.22 4.62L19.22 4.62Q18.91 4.53 18.45 4.53L18.45 4.53L18.45 4.53Q17.92 4.53 17.41 4.68L17.41 4.68L17.41 4.68Q16.90 4.84 16.59 5.04L16.59 5.04L16.88 5.68L16.88 5.68Q17.06 5.59 17.37 5.52L17.37 5.52L17.37 5.52Q17.69 5.45 17.98 5.45L17.98 5.45L17.98 5.45Q18.31 5.45 18.46 5.57L18.46 5.57L18.46 5.57Q18.62 5.68 18.62 5.97L18.62 5.97L18.62 6.05L18.62 6.05Q18.46 6.05 18.28 6.07L18.28 6.07L18.28 6.07Q18.11 6.08 17.89 6.12L17.89 6.12L17.89 6.12Q17.67 6.16 17.47 6.23L17.47 6.23L17.47 6.23Q17.28 6.29 17.08 6.40L17.08 6.40L17.08 6.40Q16.88 6.51 16.74 6.65L16.74 6.65L16.74 6.65Q16.60 6.79 16.52 6.99L16.52 6.99L16.52 6.99Q16.43 7.20 16.43 7.44L16.43 7.44L16.43 7.44Q16.43 8.68 17.69 8.68L17.69 8.68L17.69 8.68Q17.87 8.68 18.05 8.63L18.05 8.63L18.05 8.63Q18.23 8.58 18.35 8.50L18.35 8.50L18.35 8.50Q18.48 8.43 18.57 8.35L18.57 8.35L18.57 8.35Q18.67 8.28 18.71 8.22L18.71 8.22ZM18.39 7.86L18.39 7.86L18.39 7.86Q17.99 7.86 17.99 7.28L17.99 7.28L17.99 7.28Q17.99 6.95 18.16 6.80L18.16 6.80L18.16 6.80Q18.33 6.64 18.62 6.64L18.62 6.64L18.62 7.76L18.62 7.76Q18.62 7.76 18.59 7.79L18.59 7.79L18.59 7.79Q18.56 7.81 18.51 7.84L18.51 7.84L18.51 7.84Q18.45 7.86 18.39 7.86ZM20.65 8.59L22.16 8.59L22.16 5.87L22.16 5.87Q22.17 5.86 22.19 5.84L22.19 5.84L22.19 5.84Q22.22 5.81 22.23 5.81L22.23 5.81L22.23 5.81Q22.24 5.80 22.27 5.77L22.27 5.77L22.27 5.77Q22.29 5.75 22.31 5.74L22.31 5.74L22.31 5.74Q22.32 5.74 22.34 5.72L22.34 5.72L22.34 5.72Q22.37 5.70 22.39 5.70L22.39 5.70L22.39 5.70Q22.40 5.69 22.43 5.68L22.43 5.68L22.43 5.68Q22.46 5.67 22.48 5.66L22.48 5.66L22.48 5.66Q22.50 5.66 22.52 5.65L22.52 5.65L22.52 5.65Q22.55 5.65 22.58 5.65L22.58 5.65L22.58 5.65Q22.96 5.65 22.95 6.09L22.95 6.09L22.95 8.59L24.49 8.59L24.49 6.36L24.49 6.36Q24.49 6.09 24.48 5.87L24.48 5.87L24.48 5.87Q24.71 5.65 24.85 5.65L24.85 5.65L24.85 5.65Q25.05 5.65 25.14 5.76L25.14 5.76L25.14 5.76Q25.24 5.88 25.24 6.09L25.24 6.09L25.24 8.59L26.76 8.59L26.76 6.22L26.76 6.22Q26.76 5.56 26.65 5.19L26.65 5.19L26.65 5.19Q26.53 4.83 26.29 4.68L26.29 4.68L26.29 4.68Q26.04 4.53 25.61 4.53L25.61 4.53L25.61 4.53Q25.21 4.53 24.88 4.77L24.88 4.77L24.88 4.77Q24.55 5.01 24.39 5.28L24.39 5.28L24.39 5.28Q24.29 4.88 24.04 4.70L24.04 4.70L24.04 4.70Q23.80 4.53 23.33 4.53L23.33 4.53L23.33 4.53Q23.15 4.53 22.96 4.60L22.96 4.60L22.96 4.60Q22.78 4.67 22.65 4.76L22.65 4.76L22.65 4.76Q22.52 4.85 22.40 4.97L22.40 4.97L22.40 4.97Q22.28 5.08 22.23 5.14L22.23 5.14L22.23 5.14Q22.19 5.19 22.17 5.22L22.17 5.22L22.17 4.62L21.37 4.62L20.37 4.90L20.37 5.39L20.65 5.57L20.65 8.59ZM29.74 8.59L29.74 8.59L29.74 8.59Q30.13 8.59 30.43 8.43L30.43 8.43L30.43 8.43Q30.73 8.26 30.92 7.98L30.92 7.98L30.92 7.98Q31.11 7.70 31.21 7.32L31.21 7.32L31.21 7.32Q31.31 6.95 31.31 6.51L31.31 6.51L31.31 6.51Q31.31 5.58 30.95 5.05L30.95 5.05L30.95 5.05Q30.59 4.53 29.82 4.53L29.82 4.53L29.82 4.53Q29.50 4.53 29.26 4.64L29.26 4.64L29.26 4.64Q29.02 4.76 28.85 4.93L28.85 4.93L28.85 4.62L28.07 4.62L27.07 4.90L27.07 5.39L27.35 5.57L27.35 10.00L28.85 10.00L28.85 8.39L28.85 8.39Q29.02 8.47 29.25 8.53L29.25 8.53L29.25 8.53Q29.47 8.59 29.74 8.59ZM29.05 7.94L29.05 7.94L29.05 7.94Q29.01 7.94 28.96 7.93L28.96 7.93L28.96 7.93Q28.91 7.93 28.85 7.91L28.85 7.91L28.85 5.45L28.85 5.45Q29.02 5.36 29.17 5.36L29.17 5.36L29.17 5.36Q29.40 5.36 29.54 5.56L29.54 5.56L29.54 5.56Q29.68 5.77 29.68 6.19L29.68 6.19L29.68 6.98L29.68 6.98Q29.68 7.94 29.05 7.94Z"></path></g><defs data-v-423bf9ae=""><linearGradient data-v-423bf9ae="" gradientTransform="rotate(25)" id="0b72ec2e-dea7-4150-9eda-a5ee05448d63" x1="0%" y1="0%" x2="100%" y2="0%"><stop data-v-423bf9ae="" offset="0%" style="stop-color: rgb(204, 255, 255); stop-opacity: 1;"></stop><stop data-v-423bf9ae="" offset="100%" style="stop-color: rgb(102, 153, 153); stop-opacity: 1;"></stop></linearGradient></defs><g data-v-423bf9ae="" id="6ae98534-6470-4c45-a330-23a349db97f7" transform="matrix(1.0868111504448785,0,0,1.0868111504448785,78.74473429518693,-0.23894260335429607)" stroke="none" fill="url(#0b72ec2e-dea7-4150-9eda-a5ee05448d63)"><g clip-rule="evenodd"><path d="M12.983 10.59l17.018 88.223-5.872-59.049 29.021-1.892-.054-9.883L64.549 1 53.622 18.977z"></path><path d="M59.389 54.548l5.16-53.541-8.74 39.716-19.612 1.045 1.57 20.462-7.766 36.583 12.057-39.899z"></path><path d="M62.8 67.182l.549-10.453-15.979 3.755-.032 11.797-17.337 26.532 21.68-27.616zM65.711 62.394l14.841-4.731 1.509-12.532-15.899 2.095zM72.07 44.502l10.988-1.417 1.581-10.278-8.079-.373L64.549 1l8.43 30.967z"></path><path d="M87.413 31.294l1.256-9.506-9.544-2.694L64.549 1l14.483 22.437-.422 7z"></path></g></g><!----></svg>